<svg width="23" height="28" viewBox="0 0 23 28" fill="none" xmlns="http://www.w3.org/2000/svg">
<path d="M18.8409 14.8413C18.8543 13.802 19.1304 12.783 19.6434 11.8791C20.1564 10.9752 20.8898 10.2157 21.7752 9.67137C21.2127 8.86805 20.4707 8.20695 19.608 7.74057C18.7453 7.2742 17.7858 7.0154 16.8056 6.98473C14.7147 6.76526 12.6876 8.2359 11.6222 8.2359C10.536 8.2359 8.89556 7.00652 7.12902 7.04287C5.98638 7.07978 4.87278 7.41206 3.89673 8.00731C2.92068 8.60257 2.11547 9.44051 1.55955 10.4395C-0.84857 14.6088 0.947673 20.7362 3.25446 24.1064C4.40859 25.7566 5.75744 27.6 7.52238 27.5347C9.24948 27.463 9.89452 26.4333 11.9793 26.4333C14.0447 26.4333 14.6499 27.5347 16.4506 27.4931C18.3039 27.463 19.4715 25.8355 20.5852 24.1696C21.4144 22.9937 22.0525 21.6941 22.4758 20.319C21.3991 19.8636 20.4803 19.1013 19.8339 18.1272C19.1875 17.1532 18.8422 16.0104 18.8409 14.8413Z" fill="white"/>
<path d="M15.4394 4.76872C16.4499 3.55568 16.9477 1.99652 16.8272 0.422363C15.2834 0.584508 13.8574 1.32233 12.8333 2.48883C12.3325 3.05869 11.949 3.72166 11.7047 4.43982C11.4603 5.15799 11.3599 5.91727 11.4092 6.67427C12.1813 6.68222 12.9452 6.51486 13.6433 6.18478C14.3415 5.85471 14.9556 5.37053 15.4394 4.76872Z" fill="white"/>
</svg>
