<svg width="50" height="51" viewBox="0 0 50 51" fill="none" xmlns="http://www.w3.org/2000/svg">
<rect y="0.5" width="50" height="50" rx="8" fill="#5BB5A2"/>
<path d="M32.9957 29.73C32.9957 30.457 32.5907 31.857 31.6817 32.626C31.4997 32.766 31.3167 32.687 31.3967 32.483C31.6617 31.835 32.2687 30.336 31.9837 29.991C31.7837 29.729 30.9537 29.748 30.2457 29.809C29.9217 29.85 29.6387 29.869 29.4177 29.914C29.2147 29.931 29.1727 29.751 29.3767 29.611C29.6387 29.426 29.9217 29.286 30.2467 29.183C31.3967 28.839 32.7267 29.046 32.9167 29.266C32.9527 29.308 32.9967 29.426 32.9967 29.729L32.9957 29.73ZM31.0747 31.024C30.8106 31.2257 30.5333 31.4094 30.2447 31.574C28.1227 32.849 25.3747 33.517 22.9867 33.517C19.1437 33.517 15.7067 32.1 13.0987 29.729C12.8757 29.547 13.0607 29.283 13.3217 29.426C16.1317 31.066 19.6097 32.058 23.2107 32.058C25.6181 32.0512 28.0034 31.5982 30.2457 30.722C30.4077 30.661 30.5897 30.578 30.7487 30.52C31.1157 30.355 31.4387 30.763 31.0747 31.024V31.024ZM24.9047 19.994C24.9047 18.953 24.9457 18.34 24.6007 17.814C24.2947 17.381 23.7677 17.121 23.0327 17.162C22.2347 17.206 21.3777 17.729 21.1587 18.688C21.1167 18.908 20.9877 19.124 20.7227 19.171L18.2867 18.861C18.1127 18.821 17.8487 18.688 17.9347 18.34C18.4577 15.588 20.8097 14.629 23.0327 14.5H23.5557C24.7757 14.5 26.3427 14.849 27.3457 15.764C28.5627 16.9 28.4337 18.426 28.4337 20.084V24.011C28.4337 25.189 28.9107 25.711 29.3917 26.325C29.5217 26.544 29.5657 26.802 29.3467 26.98C28.7169 27.5419 28.0778 28.0933 27.4297 28.634C27.2557 28.767 26.9417 28.781 26.8197 28.679C26.0497 28.034 25.8617 27.676 25.3847 27.021C24.5547 27.892 23.8587 28.373 23.0297 28.634C22.4467 28.782 21.8471 28.8546 21.2457 28.85C19.1557 28.85 17.4997 27.547 17.4997 24.97C17.4997 22.921 18.5897 21.528 20.1997 20.869C21.8097 20.209 24.1497 19.999 24.9037 19.995L24.9047 19.994ZM24.4267 25.186C24.9467 24.314 24.9037 23.6 24.9037 22.001C24.2527 22.001 23.5977 22.046 23.0327 22.179C21.9877 22.482 21.1587 23.14 21.1587 24.534C21.1587 25.624 21.7257 26.366 22.6837 26.366C22.8157 26.366 22.9317 26.35 23.0327 26.321C23.7027 26.135 24.1207 25.799 24.4267 25.186V25.186Z" fill="white"/>
</svg>
