<svg width="50" height="51" viewBox="0 0 50 51" fill="none" xmlns="http://www.w3.org/2000/svg">
<rect y="0.5" width="50" height="50" rx="8" fill="#5BB5A2"/>
<path d="M14.064 19.01C14.896 17.3532 16.1724 15.9605 17.7504 14.9875C19.3285 14.0144 21.1461 13.4994 23 13.5C25.695 13.5 27.959 14.49 29.69 16.105L26.823 18.973C25.786 17.982 24.468 17.477 23 17.477C20.395 17.477 18.19 19.237 17.405 21.6C17.205 22.2 17.091 22.84 17.091 23.5C17.091 24.16 17.205 24.8 17.405 25.4C18.191 27.764 20.395 29.523 23 29.523C24.345 29.523 25.49 29.168 26.386 28.568C26.9054 28.226 27.3501 27.7822 27.6932 27.2635C28.0363 26.7448 28.2706 26.1619 28.382 25.55H23V21.682H32.418C32.536 22.336 32.6 23.018 32.6 23.727C32.6 26.773 31.51 29.337 29.618 31.077C27.964 32.605 25.7 33.5 23 33.5C21.6866 33.5005 20.386 33.2422 19.1725 32.7399C17.9591 32.2375 16.8565 31.5009 15.9278 30.5722C14.9991 29.6436 14.2625 28.541 13.7601 27.3275C13.2578 26.114 12.9995 24.8134 13 23.5C13 21.886 13.386 20.36 14.064 19.01Z" fill="white"/>
</svg>
