<svg width="22" height="23" viewBox="0 0 22 23" fill="none" xmlns="http://www.w3.org/2000/svg">
<path d="M14.758 3.15023C14.6351 3.75516 14.6351 4.37863 14.758 4.98356H4.13476L11.0556 11.0904L15.6838 6.94706C16.0743 7.43014 16.562 7.83256 17.1166 8.12498L11.0657 13.5434L3.66634 7.01489V17.8169H18.333V8.55856C18.9379 8.68145 19.5614 8.68145 20.1663 8.55856V18.7336C20.1663 18.9767 20.0698 19.2098 19.8979 19.3817C19.7259 19.5537 19.4928 19.6502 19.2497 19.6502H2.74967C2.50656 19.6502 2.2734 19.5537 2.10149 19.3817C1.92958 19.2098 1.83301 18.9767 1.83301 18.7336V4.06689C1.83301 3.82378 1.92958 3.59062 2.10149 3.41871C2.2734 3.2468 2.50656 3.15023 2.74967 3.15023H14.758ZM19.2497 6.81689C18.8885 6.81689 18.5309 6.74576 18.1973 6.60756C17.8636 6.46936 17.5605 6.2668 17.3051 6.01144C17.0498 5.75608 16.8472 5.45292 16.709 5.11927C16.5708 4.78563 16.4997 4.42803 16.4997 4.06689C16.4997 3.70576 16.5708 3.34816 16.709 3.01452C16.8472 2.68087 17.0498 2.37771 17.3051 2.12235C17.5605 1.86699 17.8636 1.66443 18.1973 1.52623C18.5309 1.38803 18.8885 1.31689 19.2497 1.31689C19.979 1.31689 20.6785 1.60663 21.1942 2.12235C21.7099 2.63808 21.9997 3.33755 21.9997 4.06689C21.9997 4.79624 21.7099 5.49571 21.1942 6.01144C20.6785 6.52716 19.979 6.81689 19.2497 6.81689Z" fill="white"/>
</svg>
