<svg width="22" height="23" viewBox="0 0 22 23" fill="none" xmlns="http://www.w3.org/2000/svg">
<path d="M19.25 15.4518V18.6931C19.2501 18.9252 19.1622 19.1487 19.004 19.3185C18.8457 19.4883 18.629 19.5917 18.3975 19.608C17.9969 19.6355 17.6697 19.6501 17.4167 19.6501C9.31608 19.6501 2.75 13.0841 2.75 4.98348C2.75 4.73048 2.76375 4.40323 2.79217 4.00265C2.80841 3.77114 2.91187 3.55441 3.08165 3.39619C3.25144 3.23797 3.47492 3.15004 3.707 3.15015H6.94833C7.06204 3.15003 7.17172 3.19218 7.25608 3.26842C7.34045 3.34465 7.39346 3.44951 7.40483 3.56265C7.42592 3.77348 7.44517 3.94123 7.4635 4.06865C7.64567 5.33999 8.019 6.57649 8.57083 7.73623C8.65792 7.91956 8.60108 8.13865 8.43608 8.25598L6.45792 9.66948C7.66742 12.4877 9.91334 14.7336 12.7316 15.9431L14.1432 13.9686C14.201 13.888 14.2851 13.8301 14.3811 13.8052C14.4771 13.7802 14.5788 13.7897 14.6685 13.8321C15.8281 14.3829 17.0643 14.7553 18.3352 14.9366C18.4626 14.955 18.6303 14.9751 18.8393 14.9953C18.9523 15.0069 19.0569 15.06 19.133 15.1443C19.209 15.2287 19.2511 15.3383 19.2509 15.4518H19.25Z" fill="white"/>
</svg>
